<svg xmlns="http://www.w3.org/2000/svg" viewBox="0 0 512 512"><path d="M256 73.825a182.18 182.18 0 0 0-182.18 182.18c0 100.617 81.567 182.17 182.18 182.17a182.175 182.175 0 1 0 0-364.35zm-93.061 115.972h186.127l.008.03L256 247.865l-93.07-58.04zm202.195 122.598a19.522 19.522 0 0 1-19.52 19.52H166.378a19.525 19.525 0 0 1-19.52-19.52V209.317a19.926 19.926 0 0 1 .308-3.34l102.998 64.23c.132.08.264.132.396.211.132.07.272.14.413.211a10.967 10.967 0 0 0 2.242.87c.079.018.157.044.236.061a11.318 11.318 0 0 0 2.541.317h.017a11.35 11.35 0 0 0 2.544-.317c.075-.017.154-.043.234-.06a11.582 11.582 0 0 0 2.25-.87c.132-.07.272-.14.408-.212.128-.079.268-.132.392-.211l102.99-64.23a19.025 19.025 0 0 1 .307 3.34v103.078z" data-name="Mail"/></svg>